<svg width="123" height="102" viewBox="0 0 123 102" fill="none" xmlns="http://www.w3.org/2000/svg">
<path d="M44.6228 71.3965H53.6426C55.9642 71.3965 58.1145 70.9968 60.0935 70.1976C62.0725 69.3984 63.8042 68.2757 65.2885 66.8295C66.7727 65.3832 67.9145 63.6896 68.7137 61.7487C69.551 59.8077 69.9696 57.6954 69.9696 55.4119C69.9696 53.1284 69.551 51.0162 68.7137 49.0752C67.9145 47.1343 66.7727 45.4407 65.2885 43.9944C63.8042 42.5482 62.0725 41.4255 60.0935 40.6263C58.1145 39.8271 55.9642 39.4274 53.6426 39.4274H44.6228V71.3965ZM40.227 75.3926V35.4313H53.4143C56.4589 35.4313 59.2562 35.9261 61.8061 36.9156C64.356 37.9051 66.5634 39.2942 68.4283 41.083C70.3312 42.8717 71.7964 44.984 72.824 47.4197C73.8896 49.8554 74.4225 52.5195 74.4225 55.4119C74.4225 58.3044 73.9087 60.9685 72.8811 63.4042C71.8535 65.8399 70.3883 67.9522 68.4854 69.7409C66.6205 71.5297 64.3941 72.9188 61.8061 73.9083C59.2562 74.8978 56.4589 75.3926 53.4143 75.3926H40.227Z" fill="#567AB1"/>
<path d="M60.9714 58V18.0387H89.5723V21.9207H65.3672V36.1926H81.2375V40.0174H65.3672V58H60.9714Z" fill="#567AB1"/>
<path d="M3.22692 93.082H6.53765C7.38978 93.082 8.17905 92.9354 8.90545 92.642C9.63186 92.3487 10.2675 91.9366 10.8123 91.4057C11.3571 90.8749 11.7762 90.2533 12.0695 89.5408C12.3768 88.8284 12.5305 88.0531 12.5305 87.2149C12.5305 86.3768 12.3768 85.6015 12.0695 84.889C11.7762 84.1766 11.3571 83.555 10.8123 83.0241C10.2675 82.4933 9.63186 82.0812 8.90545 81.7878C8.17905 81.4945 7.38978 81.3478 6.53765 81.3478H3.22692V93.082ZM1.61346 94.5488V79.881H6.45383C7.57138 79.881 8.59813 80.0626 9.53407 80.4258C10.47 80.789 11.2802 81.2989 11.9647 81.9555C12.6632 82.612 13.201 83.3873 13.5782 84.2814C13.9693 85.1754 14.1649 86.1533 14.1649 87.2149C14.1649 88.2766 13.9763 89.2544 13.5991 90.1485C13.222 91.0425 12.6842 91.8178 11.9857 92.4744C11.3012 93.1309 10.484 93.6408 9.53407 94.004C8.59813 94.3672 7.57138 94.5488 6.45383 94.5488H1.61346ZM19.5074 94.7374C18.739 94.7374 18.0615 94.6047 17.4748 94.3393C16.9021 94.0739 16.4481 93.7037 16.1128 93.2287C15.7915 92.7538 15.6309 92.202 15.6309 91.5734C15.6309 90.5815 16.008 89.7993 16.7624 89.2265C17.5167 88.6538 18.5365 88.3674 19.8217 88.3674C20.9532 88.3674 21.9799 88.6049 22.9019 89.0798V87.6969C22.9019 86.8587 22.6644 86.2301 22.1895 85.811C21.7145 85.378 21.023 85.1614 20.115 85.1614C19.5982 85.1614 19.0743 85.2383 18.5435 85.3919C18.0266 85.5316 17.4539 85.7621 16.8252 86.0834L16.2385 84.889C16.9929 84.5258 17.6913 84.2604 18.3339 84.0928C18.9765 83.9251 19.6191 83.8413 20.2617 83.8413C21.5888 83.8413 22.6086 84.1556 23.321 84.7843C24.0474 85.4129 24.4106 86.3139 24.4106 87.4873V94.5488H22.9019V93.5221C22.427 93.9272 21.9031 94.2345 21.3304 94.4441C20.7716 94.6396 20.1639 94.7374 19.5074 94.7374ZM17.1186 91.5315C17.1186 92.1182 17.3631 92.6001 17.852 92.9773C18.3549 93.3405 18.9975 93.5221 19.7798 93.5221C20.4084 93.5221 20.9811 93.4243 21.498 93.2287C22.0149 93.0332 22.4828 92.7258 22.9019 92.3067V90.3371C22.4689 90.0437 22.0079 89.8342 21.5189 89.7085C21.03 89.5688 20.4782 89.4989 19.8636 89.4989C19.0254 89.4989 18.3549 89.6875 17.852 90.0647C17.3631 90.4279 17.1186 90.9168 17.1186 91.5315ZM27.001 94.5488V84.0509H28.5516V85.2872C29.3758 84.3233 30.4794 83.8413 31.8624 83.8413C32.6586 83.8413 33.3571 84.0159 33.9578 84.3652C34.5724 84.7004 35.0474 85.1754 35.3826 85.7901C35.7319 86.3907 35.9065 87.0962 35.9065 87.9064V94.5488H34.3768V88.2207C34.3768 87.2848 34.1114 86.5514 33.5806 86.0205C33.0637 85.4757 32.3513 85.2033 31.4433 85.2033C30.8147 85.2033 30.2559 85.343 29.767 85.6224C29.278 85.9018 28.8729 86.2999 28.5516 86.8168V94.5488H27.001ZM38.5012 94.5488V84.0509H40.0518V94.5488H38.5012ZM39.2765 82.0393C38.9971 82.0393 38.7526 81.9345 38.5431 81.725C38.3336 81.5154 38.2288 81.271 38.2288 80.9916C38.2288 80.6982 38.3336 80.4538 38.5431 80.2582C38.7526 80.0487 38.9971 79.9439 39.2765 79.9439C39.5698 79.9439 39.8143 80.0487 40.0099 80.2582C40.2194 80.4538 40.3242 80.6982 40.3242 80.9916C40.3242 81.271 40.2194 81.5154 40.0099 81.725C39.8143 81.9345 39.5698 82.0393 39.2765 82.0393ZM47.6203 94.7374C46.6145 94.7374 45.6995 94.4999 44.8753 94.025C44.0651 93.5361 43.4155 92.8795 42.9266 92.0553C42.4516 91.2311 42.2141 90.3091 42.2141 89.2894C42.2141 88.2836 42.4446 87.3756 42.9056 86.5654C43.3666 85.7412 43.9882 85.0916 44.7705 84.6166C45.5528 84.1277 46.4259 83.8832 47.3898 83.8832C48.3257 83.8832 49.1639 84.1277 49.9043 84.6166C50.6586 85.0916 51.2523 85.7412 51.6853 86.5654C52.1324 87.3756 52.3559 88.2836 52.3559 89.2894V89.7713H43.7438C43.8276 90.4558 44.0441 91.0705 44.3933 91.6153C44.7566 92.1601 45.2245 92.5931 45.7973 92.9144C46.37 93.2217 46.9986 93.3754 47.6831 93.3754C48.2279 93.3754 48.7588 93.2916 49.2756 93.124C49.7925 92.9563 50.2255 92.7188 50.5748 92.4115L51.5387 93.4383C50.952 93.8713 50.3373 94.1996 49.6947 94.4231C49.0661 94.6326 48.3746 94.7374 47.6203 94.7374ZM43.7857 88.535H50.8053C50.7215 87.9064 50.5119 87.3476 50.1767 86.8587C49.8554 86.3558 49.4502 85.9647 48.9613 85.6853C48.4724 85.3919 47.9346 85.2452 47.3479 85.2452C46.7472 85.2452 46.1954 85.3849 45.6925 85.6643C45.1896 85.9437 44.7705 86.3349 44.4353 86.8378C44.1 87.3267 43.8835 87.8924 43.7857 88.535ZM54.5236 94.5488V79.881L56.0742 79.5248V94.5488H54.5236ZM63.5137 94.5488V79.881H74.0117V81.3059H65.1272V86.5444H70.9524V87.9483H65.1272V94.5488H63.5137ZM78.6206 94.7584C77.6287 94.7584 76.7207 94.5209 75.8965 94.0459C75.0863 93.557 74.4437 92.9004 73.9688 92.0763C73.4938 91.2521 73.2563 90.3301 73.2563 89.3103C73.2563 88.2906 73.4938 87.3686 73.9688 86.5444C74.4437 85.7202 75.0863 85.0706 75.8965 84.5957C76.7207 84.1067 77.6287 83.8623 78.6206 83.8623C79.6264 83.8623 80.5344 84.1067 81.3446 84.5957C82.1548 85.0706 82.7974 85.7202 83.2724 86.5444C83.7473 87.3686 83.9848 88.2906 83.9848 89.3103C83.9848 90.3301 83.7473 91.2521 83.2724 92.0763C82.7974 92.9004 82.1548 93.557 81.3446 94.0459C80.5344 94.5209 79.6264 94.7584 78.6206 94.7584ZM78.6206 93.3754C79.333 93.3754 79.9756 93.1938 80.5483 92.8306C81.135 92.4674 81.596 91.9785 81.9313 91.3638C82.2805 90.7492 82.4552 90.0647 82.4552 89.3103C82.4552 88.542 82.2805 87.8575 81.9313 87.2568C81.596 86.6422 81.135 86.1533 80.5483 85.7901C79.9756 85.4269 79.333 85.2452 78.6206 85.2452C77.9081 85.2452 77.2586 85.4269 76.6718 85.7901C76.0991 86.1533 75.6381 86.6422 75.2889 87.2568C74.9536 87.8575 74.786 88.542 74.786 89.3103C74.786 90.0647 74.9536 90.7492 75.2889 91.3638C75.6381 91.9785 76.0991 92.4674 76.6718 92.8306C77.2586 93.1938 77.9081 93.3754 78.6206 93.3754ZM89.4914 94.7584C88.6253 94.7584 87.8081 94.6187 87.0398 94.3393C86.2855 94.0459 85.6289 93.6408 85.0701 93.124L86.0131 92.1182C86.502 92.5652 87.0398 92.9144 87.6265 93.1659C88.2132 93.4033 88.8139 93.5221 89.4286 93.5221C90.2667 93.5221 90.9512 93.3475 91.4821 92.9982C92.0129 92.649 92.2783 92.195 92.2783 91.6362C92.2783 91.1752 92.1177 90.819 91.7964 90.5676C91.4891 90.3021 91.0001 90.1205 90.3296 90.0228L88.5066 89.7713C87.4589 89.6177 86.6766 89.3033 86.1598 88.8284C85.6569 88.3534 85.4054 87.7108 85.4054 86.9006C85.4054 86.3139 85.573 85.7901 85.9083 85.3291C86.2436 84.8681 86.7046 84.5049 87.2913 84.2395C87.8919 83.974 88.5764 83.8413 89.3448 83.8413C90.1131 83.8413 90.8325 83.9531 91.503 84.1766C92.1736 84.4001 92.8301 84.7493 93.4727 85.2243L92.6555 86.272C92.0688 85.8669 91.496 85.5735 90.9373 85.3919C90.3925 85.1964 89.8337 85.0986 89.2609 85.0986C88.5345 85.0986 87.9478 85.2592 87.5008 85.5805C87.0538 85.9018 86.8303 86.3209 86.8303 86.8378C86.8303 87.3127 86.9839 87.6759 87.2913 87.9274C87.5986 88.1648 88.0945 88.3325 88.779 88.4303L90.602 88.6817C91.6497 88.8214 92.432 89.1287 92.9488 89.6037C93.4797 90.0786 93.7451 90.7282 93.7451 91.5524C93.7451 92.1531 93.5565 92.6979 93.1793 93.1868C92.8022 93.6757 92.2923 94.0599 91.6497 94.3393C91.0211 94.6187 90.3017 94.7584 89.4914 94.7584ZM98.843 94.7584C97.9769 94.7584 97.1597 94.6187 96.3914 94.3393C95.637 94.0459 94.9805 93.6408 94.4217 93.124L95.3646 92.1182C95.8535 92.5652 96.3914 92.9144 96.9781 93.1659C97.5648 93.4033 98.1655 93.5221 98.7801 93.5221C99.6183 93.5221 100.303 93.3475 100.834 92.9982C101.364 92.649 101.63 92.195 101.63 91.6362C101.63 91.1752 101.469 90.819 101.148 90.5676C100.841 90.3021 100.352 90.1205 99.6811 90.0228L97.8581 89.7713C96.8104 89.6177 96.0282 89.3033 95.5113 88.8284C95.0084 88.3534 94.757 87.7108 94.757 86.9006C94.757 86.3139 94.9246 85.7901 95.2599 85.3291C95.5951 84.8681 96.0561 84.5049 96.6428 84.2395C97.2435 83.974 97.928 83.8413 98.6963 83.8413C99.4646 83.8413 100.184 83.9531 100.855 84.1766C101.525 84.4001 102.182 84.7493 102.824 85.2243L102.007 86.272C101.42 85.8669 100.848 85.5735 100.289 85.3919C99.744 85.1964 99.1852 85.0986 98.6125 85.0986C97.8861 85.0986 97.2994 85.2592 96.8524 85.5805C96.4053 85.9018 96.1818 86.3209 96.1818 86.8378C96.1818 87.3127 96.3355 87.6759 96.6428 87.9274C96.9501 88.1648 97.4461 88.3325 98.1305 88.4303L99.9535 88.6817C101.001 88.8214 101.784 89.1287 102.3 89.6037C102.831 90.0786 103.097 90.7282 103.097 91.5524C103.097 92.1531 102.908 92.6979 102.531 93.1868C102.154 93.6757 101.644 94.0599 101.001 94.3393C100.373 94.6187 99.6532 94.7584 98.843 94.7584ZM108.255 94.7374C107.487 94.7374 106.809 94.6047 106.222 94.3393C105.65 94.0739 105.196 93.7037 104.86 93.2287C104.539 92.7538 104.378 92.202 104.378 91.5734C104.378 90.5815 104.756 89.7993 105.51 89.2265C106.264 88.6538 107.284 88.3674 108.569 88.3674C109.701 88.3674 110.728 88.6049 111.649 89.0798V87.6969C111.649 86.8587 111.412 86.2301 110.937 85.811C110.462 85.378 109.771 85.1614 108.863 85.1614C108.346 85.1614 107.822 85.2383 107.291 85.3919C106.774 85.5316 106.201 85.7621 105.573 86.0834L104.986 84.889C105.74 84.5258 106.439 84.2604 107.082 84.0928C107.724 83.9251 108.367 83.8413 109.009 83.8413C110.336 83.8413 111.356 84.1556 112.069 84.7843C112.795 85.4129 113.158 86.3139 113.158 87.4873V94.5488H111.649V93.5221C111.175 93.9272 110.651 94.2345 110.078 94.4441C109.519 94.6396 108.911 94.7374 108.255 94.7374ZM105.866 91.5315C105.866 92.1182 106.111 92.6001 106.6 92.9773C107.102 93.3405 107.745 93.5221 108.527 93.5221C109.156 93.5221 109.729 93.4243 110.246 93.2287C110.762 93.0332 111.23 92.7258 111.649 92.3067V90.3371C111.216 90.0437 110.755 89.8342 110.267 89.7085C109.778 89.5688 109.226 89.4989 108.611 89.4989C107.773 89.4989 107.102 89.6875 106.6 90.0647C106.111 90.4279 105.866 90.9168 105.866 91.5315ZM115.749 94.5488V79.881L117.299 79.5248V94.5488H115.749ZM119.944 94.5488V84.0509H121.494V94.5488H119.944ZM120.719 82.0393C120.439 82.0393 120.195 81.9345 119.985 81.725C119.776 81.5154 119.671 81.271 119.671 80.9916C119.671 80.6982 119.776 80.4538 119.985 80.2582C120.195 80.0487 120.439 79.9439 120.719 79.9439C121.012 79.9439 121.257 80.0487 121.452 80.2582C121.662 80.4538 121.766 80.6982 121.766 80.9916C121.766 81.271 121.662 81.5154 121.452 81.725C121.257 81.9345 121.012 82.0393 120.719 82.0393Z" fill="#567AB1"/>
</svg>
