<svg width="128" height="125" viewBox="0 0 128 125" fill="none" xmlns="http://www.w3.org/2000/svg">
<mask id="path-1-inside-1_103_66" fill="white">
<path d="M128 62.5C128 45.924 121.257 30.0269 109.255 18.3058C97.2525 6.5848 80.9739 1.25146e-06 64 0C47.0261 -1.25146e-06 30.7475 6.5848 18.7452 18.3058C6.74284 30.0268 2.56298e-06 45.924 0 62.5L64 62.5H128Z"/>
</mask>
<path d="M128 62.5C128 45.924 121.257 30.0269 109.255 18.3058C97.2525 6.5848 80.9739 1.25146e-06 64 0C47.0261 -1.25146e-06 30.7475 6.5848 18.7452 18.3058C6.74284 30.0268 2.56298e-06 45.924 0 62.5L64 62.5H128Z" fill="#CB0606" stroke="black" stroke-width="12" mask="url(#path-1-inside-1_103_66)"/>
<mask id="path-2-inside-2_103_66" fill="white">
<path d="M128 62.5C128 79.076 121.257 94.9732 109.255 106.694C97.2525 118.415 80.9739 125 64 125C47.0261 125 30.7475 118.415 18.7452 106.694C6.74284 94.9732 2.56298e-06 79.076 0 62.5L64 62.5H128Z"/>
</mask>
<path d="M128 62.5C128 79.076 121.257 94.9732 109.255 106.694C97.2525 118.415 80.9739 125 64 125C47.0261 125 30.7475 118.415 18.7452 106.694C6.74284 94.9732 2.56298e-06 79.076 0 62.5L64 62.5H128Z" fill="#D9D9D9" stroke="black" stroke-width="12" mask="url(#path-2-inside-2_103_66)"/>
<path d="M83 61.9727C83 72.3843 74.337 80.9453 63.5 80.9453C52.663 80.9453 44 72.3843 44 61.9727C44 51.561 52.663 43 63.5 43C74.337 43 83 51.561 83 61.9727Z" fill="#D9D9D9" stroke="black" stroke-width="6"/>
<path d="M73.4667 62.2305C73.4667 67.552 69.0389 71.9276 63.5 71.9276C57.9611 71.9276 53.5333 67.552 53.5333 62.2305C53.5333 56.909 57.9611 52.5333 63.5 52.5333C69.0389 52.5333 73.4667 56.909 73.4667 62.2305Z" fill="#D9D9D9" stroke="black" stroke-width="3.06667"/>
</svg>
